

<svg version="1.1" id="Слой_1" xmlns="http://www.w3.org/2000/svg" xmlns:xlink="http://www.w3.org/1999/xlink" x="0px" y="0px"
	 viewBox="0 0 2070 2109" style="enable-background:new 0 0 2070 2109;" xml:space="preserve">
<style type="text/css">
	.st0{fill:#191D21;}
	.st1{opacity:0.64;}
	.st2{fill:none;stroke:#1F2428;stroke-width:7;stroke-miterlimit:10;}
	.st3{fill:#1F2428;}
	.st4{opacity:0.64;fill:#1F2428;}
</style>
<rect class="st0" width="2070" height="2109"/>
<g class="st1">
	<polyline class="st2" points="948.2,892.9 912.5,946.1 882.7,851.2 847.1,904.3 	"/>
	<polyline class="st2" points="1014.9,932.1 979.2,985.3 949.3,890.4 913.8,943.5 	"/>
</g>
<g class="st1">
	<polyline class="st2" points="612.4,1856 576.7,1909.3 546.9,1814.4 511.3,1867.5 	"/>
	<polyline class="st2" points="679.1,1895.3 643.4,1948.5 613.5,1853.6 577.9,1906.7 	"/>
</g>
<g class="st1">
	<polyline class="st2" points="393.1,554.7 357.4,607.9 327.5,513.1 292,566.2 	"/>
	<polyline class="st2" points="459.7,593.9 424,647.1 394.2,552.3 358.6,605.4 	"/>
</g>
<g class="st1">
	<polyline class="st2" points="1707.2,1461.9 1731.2,1521.3 1635.9,1492.8 1659.9,1552 	"/>
	<polyline class="st2" points="1777,1428.7 1801,1488.1 1705.8,1459.6 1729.8,1518.8 	"/>
</g>
<g class="st1">
	<path class="st3" d="M364.8,1123.7l-17.6,6.7l-55.2-145l17.6-6.7L364.8,1123.7z"/>
	<path class="st3" d="M403,1077.5l-7.8,17.4l-141.5-63.5l7.8-17.4L403,1077.5z"/>
	<path class="st3" d="M288,1121.4l17.1,7.7l63.5-141.5l-17.1-7.7L288,1121.4z"/>
	<path class="st3" d="M397.5,1018.1l6.7,17.6l-145,55.2l-6.7-17.6L397.5,1018.1z"/>
</g>
<g class="st1">
	<path class="st3" d="M1283.7,1382.2l-17.6,6.7l-55.2-145l17.6-6.7L1283.7,1382.2z"/>
	<path class="st3" d="M1321.9,1336.1l-7.8,17.4l-141.5-63.5l7.8-17.4L1321.9,1336.1z"/>
	<path class="st3" d="M1207,1380l17.1,7.7l63.5-141.5l-17.1-7.7L1207,1380z"/>
	<path class="st3" d="M1316.5,1276.7l6.7,17.6l-145,55.2l-6.7-17.6L1316.5,1276.7z"/>
</g>
<g class="st1">
	<path class="st3" d="M1511.7,315.7l-18.8,0.9l-7.7-155l18.8-0.9L1511.7,315.7z"/>
	<path class="st3" d="M1562.3,283.6l-12.8,14.1l-115-104.1l12.8-14.1L1562.3,283.6z"/>
	<path class="st3" d="M1439.4,289.9l13.9,12.6l104.1-115l-13.9-12.6L1439.4,289.9z"/>
	<path class="st3" d="M1575.5,225.5l0.9,18.8l-155,7.7l-0.9-18.8L1575.5,225.5z"/>
</g>
<g class="st1">
	<path class="st3" d="M1375,928.3l-18.8,0.9l-7.7-155l18.8-0.9L1375,928.3z"/>
	<path class="st3" d="M1425.5,896.2l-12.8,14.1l-115-104.1l12.8-14.1L1425.5,896.2z"/>
	<path class="st3" d="M1302.7,902.4l13.9,12.6l104.1-115l-13.9-12.6L1302.7,902.4z"/>
	<path class="st3" d="M1438.7,838l0.9,18.8l-155,7.7l-0.9-18.8L1438.7,838z"/>
</g>
<g class="st1">
	<path class="st3" d="M633.7,315.7l-18.8,0.9l-7.7-155l18.8-0.9L633.7,315.7z"/>
	<path class="st3" d="M684.3,283.6l-12.8,14.1l-115-104.1l12.8-14.1L684.3,283.6z"/>
	<path class="st3" d="M561.4,289.8l13.9,12.6l104.1-115l-13.9-12.6L561.4,289.8z"/>
	<path class="st3" d="M697.4,225.4l0.9,18.8l-155,7.7l-0.9-18.8L697.4,225.4z"/>
</g>
<circle class="st4" cx="1035" cy="461.6" r="73.5"/>
<circle class="st4" cx="1731.2" cy="1114.9" r="73.5"/>
<circle class="st4" cx="595.2" cy="1353.5" r="73.5"/>
<circle class="st4" cx="1006.6" cy="1673.9" r="73.5"/>
<circle class="st4" cx="234.5" cy="179.6" r="73.5"/>
<path class="st4" d="M286,1730.2l-69.2-22.9c-19.8-6.6-30.5-27.9-24-47.7l22.9-69.2c6.6-19.8,27.9-30.5,47.7-24l69.2,22.9
	c19.8,6.6,30.5,27.9,24,47.7l-22.9,69.2C327.2,1726.1,305.8,1736.8,286,1730.2z"/>
<path class="st4" d="M1544.7,1959.6l-69.2-22.9c-19.8-6.6-30.5-27.9-24-47.7l22.9-69.2c6.6-19.8,27.9-30.5,47.7-24l69.2,22.9
	c19.8,6.6,30.5,27.9,24,47.7l-22.9,69.2C1585.9,1955.4,1564.5,1966.1,1544.7,1959.6z"/>
<path class="st4" d="M1742.4,681.6l-69.2-22.9c-19.8-6.6-30.5-27.9-24-47.7l22.9-69.2c6.6-19.8,27.9-30.5,47.7-24l69.2,22.9
	c19.8,6.6,30.5,27.9,24,47.7l-22.9,69.2C1783.6,677.5,1762.2,688.2,1742.4,681.6z"/>
</svg>